<?xml version="1.0" encoding="UTF-8"?>
<svg width="10px" height="11px" viewBox="0 0 10 11" version="1.1" xmlns="http://www.w3.org/2000/svg" xmlns:xlink="http://www.w3.org/1999/xlink">
    <!-- Generator: Sketch 52.4 (67378) - http://www.bohemiancoding.com/sketch -->
    <title>icon_profile</title>
    <desc>Created with Sketch.</desc>
    <g id="icon_profile" stroke="none" stroke-width="1" fill="none" fill-rule="evenodd">
        <path d="M4.9199,5.5592 C3.5949,5.5592 2.5209,4.4852 2.5209,3.1592 C2.5209,1.8342 3.5949,0.7602 4.9199,0.7602 C6.2449,0.7602 7.3199,1.8342 7.3199,3.1592 C7.3199,4.4852 6.2449,5.5592 4.9199,5.5592 M4.9199,0.0422 C3.1979,0.0422 1.8029,1.4372 1.8029,3.1592 C1.8029,4.8812 3.1979,6.2772 4.9199,6.2772 C6.6419,6.2772 8.0369,4.8812 8.0369,3.1592 C8.0369,1.4372 6.6419,0.0422 4.9199,0.0422" id="Fill-380" fill="#1A1919"></path>
        <path d="M9.293,10.8702 C9.293,8.4552 7.335,6.4972 4.92,6.4972 C2.505,6.4972 0.548,8.4552 0.548,10.8702 L1.554,10.8702 C1.554,9.0112 3.062,7.5042 4.92,7.5042 C6.779,7.5042 8.286,9.0112 8.286,10.8702 L9.293,10.8702 Z" id="Fill-382" fill="#1A1919"></path>
    </g>
</svg>