<?xml version="1.0" encoding="UTF-8"?>
<svg width="14px" height="13px" viewBox="0 0 14 13" version="1.1" xmlns="http://www.w3.org/2000/svg" xmlns:xlink="http://www.w3.org/1999/xlink">
    <!-- Generator: Sketch 52.4 (67378) - http://www.bohemiancoding.com/sketch -->
    <title>icon_cart</title>
    <desc>Created with Sketch.</desc>
    <g id="icon_cart" stroke="none" stroke-width="1" fill="none" fill-rule="evenodd">
        <path d="M5.1943,5.337 C5.1953,5.278 5.1753,5.253 5.1143,5.254 C4.9813,5.257 4.8473,5.256 4.7153,5.254 C4.6633,5.254 4.6473,5.268 4.6683,5.32 C4.8023,5.662 4.9363,6.004 5.0693,6.346 C5.0843,6.383 5.1023,6.416 5.1503,6.407 C5.2073,6.398 5.1923,6.352 5.1923,6.317 C5.1943,6.156 5.1933,5.994 5.1933,5.832 C5.1933,5.667 5.1923,5.502 5.1943,5.337 Z M11.5703,12.321 C11.8053,12.323 12.0063,12.127 12.0063,11.893 C12.0063,11.654 11.8153,11.462 11.5763,11.463 C11.3333,11.463 11.1483,11.649 11.1483,11.892 C11.1483,12.129 11.3353,12.318 11.5703,12.321 Z M4.4593,12.321 C4.6943,12.321 4.8893,12.128 4.8933,11.891 C4.8963,11.655 4.7013,11.462 4.4613,11.463 C4.2173,11.463 4.0343,11.649 4.0353,11.894 C4.0353,12.13 4.2233,12.32 4.4593,12.321 Z M11.5483,7.42 C11.5463,7.482 11.5653,7.512 11.6313,7.505 C11.7873,7.492 11.9423,7.481 12.0973,7.469 C12.1343,7.466 12.1453,7.445 12.1493,7.413 C12.1763,7.195 12.2043,6.977 12.2323,6.76 C12.2383,6.714 12.2173,6.696 12.1733,6.696 C11.9853,6.697 11.7983,6.697 11.6103,6.696 C11.5573,6.696 11.5483,6.726 11.5483,6.77 L11.5483,7.108 C11.5483,7.212 11.5503,7.316 11.5483,7.42 Z M11.5483,6.318 C11.5463,6.382 11.5633,6.412 11.6343,6.411 C11.8203,6.407 12.0063,6.407 12.1903,6.411 C12.2553,6.412 12.2783,6.382 12.2853,6.325 C12.3243,5.993 12.3643,5.66 12.4053,5.327 C12.4123,5.273 12.3913,5.254 12.3393,5.254 C12.1013,5.256 11.8643,5.256 11.6273,5.254 C11.5653,5.254 11.5473,5.278 11.5483,5.337 C11.5493,5.504 11.5483,5.672 11.5483,5.84 C11.5483,6 11.5503,6.159 11.5483,6.318 Z M11.5483,4.898 C11.5463,4.963 11.5713,4.983 11.6333,4.982 C11.8743,4.98 12.1143,4.979 12.3543,4.983 C12.4273,4.984 12.4513,4.952 12.4583,4.889 C12.4873,4.642 12.5173,4.395 12.5473,4.148 C12.5543,4.082 12.5583,4.016 12.5683,3.95 C12.5763,3.899 12.5623,3.878 12.5063,3.877 C12.2063,3.87 11.9053,3.861 11.6043,3.851 C11.5443,3.849 11.5483,3.887 11.5483,3.925 L11.5483,4.42 C11.5483,4.579 11.5503,4.738 11.5483,4.898 Z M10.1273,6.695 C10.0533,6.693 10.0313,6.72 10.0323,6.791 C10.0353,7.04 10.0353,7.289 10.0323,7.538 C10.0323,7.607 10.0543,7.633 10.1243,7.627 C10.3693,7.606 10.6143,7.587 10.8593,7.567 C10.9653,7.558 11.0723,7.546 11.1793,7.542 C11.2363,7.539 11.2633,7.524 11.2623,7.461 C11.2593,7.233 11.2603,7.004 11.2623,6.774 C11.2633,6.712 11.2363,6.694 11.1783,6.695 C11.0023,6.697 10.8253,6.696 10.6483,6.696 C10.4743,6.696 10.3003,6.699 10.1273,6.695 Z M5.1943,3.77 C5.1943,3.711 5.1733,3.688 5.1133,3.688 C4.7843,3.683 4.4543,3.674 4.1243,3.669 C4.0323,3.667 4.0283,3.674 4.0623,3.762 C4.2093,4.139 4.3583,4.516 4.5033,4.894 C4.5273,4.958 4.5593,4.985 4.6293,4.983 C4.7823,4.978 4.9353,4.977 5.0893,4.983 C5.1763,4.987 5.1973,4.953 5.1953,4.872 C5.1903,4.693 5.1933,4.513 5.1933,4.334 C5.1933,4.146 5.1923,3.958 5.1943,3.77 Z M8.5873,6.695 C8.5353,6.694 8.5153,6.709 8.5163,6.764 C8.5183,7.062 8.5193,7.36 8.5163,7.658 C8.5153,7.733 8.5463,7.754 8.6153,7.748 C8.9723,7.718 9.3303,7.689 9.6863,7.662 C9.7313,7.658 9.7483,7.639 9.7483,7.597 C9.7473,7.319 9.7463,7.041 9.7483,6.763 C9.7483,6.699 9.7113,6.695 9.6633,6.696 C9.4833,6.696 9.3043,6.696 9.1253,6.696 C8.9453,6.696 8.7653,6.697 8.5873,6.695 Z M7.0903,6.695 C7.0213,6.693 6.9913,6.711 6.9923,6.786 C6.9953,7.119 6.9953,7.452 6.9923,7.785 C6.9913,7.857 7.0193,7.875 7.0853,7.87 C7.4473,7.84 7.8103,7.811 8.1733,7.783 C8.2173,7.779 8.2343,7.76 8.2343,7.717 C8.2333,7.399 8.2333,7.081 8.2343,6.762 C8.2343,6.706 8.2053,6.695 8.1573,6.696 C7.9743,6.697 7.7933,6.696 7.6103,6.696 C7.4363,6.696 7.2623,6.698 7.0903,6.695 Z M11.1663,4.983 C11.2363,4.984 11.2633,4.964 11.2623,4.89 C11.2593,4.571 11.2603,4.253 11.2623,3.934 C11.2633,3.866 11.2413,3.844 11.1733,3.842 C10.8253,3.835 10.4773,3.823 10.1313,3.81 C10.0613,3.808 10.0313,3.825 10.0323,3.9 C10.0353,4.231 10.0353,4.562 10.0323,4.892 C10.0323,4.96 10.0543,4.984 10.1233,4.983 C10.2993,4.979 10.4763,4.981 10.6533,4.981 C10.8243,4.981 10.9953,4.979 11.1663,4.983 Z M11.1703,6.411 C11.2353,6.412 11.2633,6.394 11.2623,6.323 C11.2593,5.995 11.2603,5.668 11.2623,5.34 C11.2623,5.277 11.2433,5.254 11.1773,5.254 C10.8243,5.256 10.4703,5.256 10.1173,5.254 C10.0503,5.254 10.0323,5.279 10.0333,5.341 C10.0353,5.669 10.0353,5.996 10.0333,6.324 C10.0323,6.387 10.0533,6.412 10.1183,6.411 C10.2923,6.407 10.4653,6.41 10.6393,6.41 C10.8163,6.41 10.9933,6.407 11.1703,6.411 Z M6.6373,6.411 C6.6953,6.412 6.7113,6.392 6.7113,6.336 C6.7083,6.008 6.7083,5.681 6.7113,5.355 C6.7113,5.28 6.6893,5.253 6.6123,5.254 C6.2643,5.257 5.9173,5.257 5.5703,5.254 C5.4953,5.253 5.4773,5.281 5.4783,5.35 C5.4803,5.671 5.4813,5.993 5.4773,6.314 C5.4763,6.393 5.5053,6.413 5.5793,6.411 C5.7523,6.407 5.9253,6.41 6.0993,6.41 C6.2793,6.41 6.4593,6.408 6.6373,6.411 Z M9.6623,6.411 C9.7263,6.412 9.7493,6.39 9.7493,6.326 C9.7463,5.996 9.7463,5.666 9.7483,5.336 C9.7493,5.277 9.7293,5.254 9.6693,5.254 C9.3123,5.256 8.9573,5.256 8.6003,5.254 C8.5423,5.254 8.5163,5.274 8.5173,5.334 C8.5183,5.673 8.5183,6.011 8.5163,6.35 C8.5153,6.405 8.5433,6.41 8.5863,6.41 C8.7683,6.409 8.9513,6.41 9.1323,6.41 C9.3093,6.41 9.4863,6.408 9.6623,6.411 Z M8.1383,6.411 C8.2073,6.412 8.2363,6.394 8.2353,6.319 C8.2313,5.995 8.2323,5.67 8.2353,5.346 C8.2353,5.282 8.2203,5.253 8.1483,5.254 C7.7923,5.257 7.4363,5.256 7.0803,5.254 C7.0093,5.253 6.9913,5.279 6.9923,5.345 C6.9953,5.669 6.9953,5.993 6.9923,6.317 C6.9913,6.391 7.0173,6.412 7.0883,6.411 C7.2633,6.407 7.4403,6.41 7.6173,6.41 C7.7913,6.41 7.9653,6.407 8.1383,6.411 Z M8.5163,4.891 C8.5153,4.958 8.5393,4.983 8.6073,4.983 C8.9613,4.98 9.3133,4.98 9.6673,4.982 C9.7263,4.983 9.7493,4.963 9.7483,4.902 C9.7463,4.564 9.7473,4.225 9.7483,3.886 C9.7483,3.832 9.7303,3.808 9.6733,3.807 C9.3143,3.797 8.9563,3.787 8.5973,3.774 C8.5313,3.772 8.5143,3.793 8.5153,3.858 C8.5203,4.028 8.5173,4.199 8.5173,4.37 C8.5173,4.544 8.5193,4.717 8.5163,4.891 Z M5.5693,6.695 C5.5023,6.693 5.4763,6.715 5.4783,6.784 C5.4813,6.967 5.4793,7.149 5.4793,7.332 C5.4783,7.373 5.4863,7.412 5.5013,7.451 C5.5633,7.607 5.6263,7.763 5.6843,7.92 C5.7023,7.968 5.7213,7.983 5.7783,7.977 C6.0513,7.949 6.3253,7.925 6.5993,7.907 C6.6803,7.902 6.7123,7.88 6.7113,7.796 C6.7083,7.455 6.7083,7.112 6.7113,6.771 C6.7123,6.705 6.6853,6.694 6.6303,6.695 C6.4533,6.697 6.2763,6.696 6.0993,6.696 C5.9233,6.696 5.7463,6.698 5.5693,6.695 Z M6.9923,4.897 C6.9913,4.961 7.0123,4.983 7.0773,4.983 C7.4363,4.98 7.7963,4.98 8.1543,4.982 C8.2153,4.983 8.2353,4.96 8.2343,4.9 C8.2323,4.553 8.2323,4.205 8.2353,3.858 C8.2353,3.795 8.2153,3.768 8.1503,3.768 C8.0903,3.768 8.0293,3.76 7.9683,3.758 C7.6733,3.752 7.3783,3.747 7.0833,3.739 C7.0153,3.737 6.9903,3.758 6.9923,3.828 C6.9963,4.007 6.9933,4.187 6.9933,4.366 C6.9933,4.543 6.9953,4.72 6.9923,4.897 Z M5.4783,4.894 C5.4763,4.963 5.5023,4.983 5.5693,4.983 C5.9203,4.98 6.2693,4.98 6.6203,4.983 C6.6893,4.983 6.7113,4.957 6.7103,4.891 C6.7083,4.534 6.7083,4.178 6.7103,3.822 C6.7113,3.752 6.6823,3.724 6.6133,3.723 C6.2653,3.718 5.9183,3.712 5.5713,3.703 C5.4963,3.701 5.4763,3.73 5.4783,3.799 C5.4813,3.982 5.4793,4.164 5.4793,4.346 C5.4793,4.529 5.4823,4.711 5.4783,4.894 Z M13.1623,3.839 C13.1343,4.049 13.1063,4.258 13.0803,4.467 C13.0293,4.881 12.9803,5.295 12.9303,5.709 C12.8813,6.114 12.8333,6.519 12.7843,6.924 C12.7483,7.229 12.7153,7.534 12.6733,7.837 C12.6463,8.05 12.5223,8.173 12.3113,8.194 C11.9743,8.228 11.6363,8.252 11.2983,8.279 C10.9643,8.307 10.6303,8.334 10.2953,8.36 C9.9713,8.386 9.6483,8.411 9.3253,8.436 C8.9933,8.463 8.6623,8.49 8.3303,8.517 C8.0043,8.543 7.6773,8.567 7.3513,8.593 C7.0233,8.619 6.6943,8.647 6.3653,8.673 C6.2123,8.686 6.0593,8.699 5.9063,8.711 C5.8703,8.713 5.8403,8.725 5.8113,8.748 C5.3873,9.081 4.9633,9.412 4.5413,9.748 C4.4133,9.849 4.3203,9.979 4.3103,10.151 C4.2993,10.35 4.3983,10.463 4.5973,10.478 C4.6843,10.484 4.7713,10.481 4.8583,10.482 C5.3253,10.483 5.7923,10.481 6.2583,10.485 C8.3043,10.508 10.3503,10.49 12.3973,10.503 C12.4583,10.503 12.5183,10.506 12.5793,10.512 C12.7873,10.535 12.9303,10.703 12.9233,10.911 C12.9173,11.101 12.7543,11.262 12.5553,11.271 C12.4683,11.274 12.3813,11.271 12.2953,11.271 C12.2113,11.272 12.1283,11.272 12.0323,11.272 C12.0743,11.315 12.1083,11.348 12.1393,11.384 C12.5113,11.819 12.3313,12.449 11.7843,12.623 C11.7683,12.629 11.7523,12.635 11.7353,12.641 L11.4233,12.641 C11.2393,12.588 11.0803,12.501 10.9653,12.343 C10.7353,12.026 10.7673,11.621 11.0483,11.347 C11.0703,11.325 11.0943,11.306 11.1333,11.273 C9.0403,11.257 6.9703,11.251 4.8993,11.254 C4.8993,11.28 4.9203,11.285 4.9313,11.295 C5.1633,11.484 5.2593,11.731 5.2103,12.021 C5.1593,12.316 4.9773,12.513 4.6953,12.615 C4.6713,12.624 4.6463,12.632 4.6223,12.641 L4.3083,12.641 C4.2843,12.632 4.2593,12.624 4.2343,12.616 C3.6813,12.435 3.5203,11.755 3.9333,11.346 C4.0223,11.258 4.1293,11.2 4.2513,11.155 C4.1833,11.119 4.1253,11.093 4.0723,11.057 C3.7693,10.846 3.5433,10.583 3.5413,10.191 C3.5373,9.761 3.7403,9.424 4.0633,9.158 C4.3473,8.924 4.6383,8.699 4.9293,8.474 C4.9893,8.427 5.0043,8.389 4.9743,8.315 C4.0553,5.968 3.1393,3.62 2.2253,1.272 C2.1943,1.192 2.1503,1.162 2.0703,1.149 C1.5133,1.057 0.9573,0.962 0.4013,0.867 C0.2193,0.836 0.0833,0.687 0.0763,0.52 C0.0653,0.246 0.2723,0.069 0.5553,0.117 C1.1803,0.222 1.8033,0.336 2.4293,0.435 C2.6513,0.47 2.7763,0.581 2.8543,0.787 C3.1323,1.522 3.4233,2.251 3.7073,2.983 C3.7273,3.035 3.7483,3.069 3.8153,3.071 C4.4653,3.085 5.1133,3.108 5.7613,3.119 C6.2193,3.128 6.6763,3.142 7.1343,3.153 C7.6033,3.165 8.0723,3.177 8.5423,3.189 C8.9993,3.199 9.4573,3.212 9.9143,3.223 C10.3833,3.234 10.8523,3.246 11.3213,3.258 C11.7883,3.27 12.2543,3.282 12.7203,3.291 C12.9303,3.295 13.0763,3.371 13.1623,3.562 L13.1623,3.839 Z" id="Fill-372" fill="#1A1919"></path>
        <path d="M4.4639,12.1427 C4.6059,12.1417 4.7129,12.0357 4.7129,11.8957 C4.7119,11.7627 4.5969,11.6477 4.4609,11.6467 C4.3289,11.6457 4.2149,11.7637 4.2159,11.8987 C4.2169,12.0417 4.3199,12.1437 4.4639,12.1427" id="Fill-374" fill="#1A1919"></path>
        <path d="M11.3291,11.8942 C11.3281,12.0382 11.4301,12.1422 11.5721,12.1432 C11.7141,12.1442 11.8251,12.0372 11.8261,11.9002 C11.8271,11.7662 11.7151,11.6502 11.5791,11.6462 C11.4461,11.6432 11.3311,11.7572 11.3291,11.8942" id="Fill-376" fill="#1A1919"></path>
    </g>
</svg>