<?xml version="1.0" encoding="UTF-8"?>
<svg width="12px" height="12px" viewBox="0 0 12 12" version="1.1" xmlns="http://www.w3.org/2000/svg" xmlns:xlink="http://www.w3.org/1999/xlink">
    <!-- Generator: Sketch 52.4 (67378) - http://www.bohemiancoding.com/sketch -->
    <title>icon_search</title>
    <desc>Created with Sketch.</desc>
    <g id="icon_search" stroke="none" stroke-width="1" fill="none" fill-rule="evenodd">
        <path d="M5.8486,7.1603 C4.1036,5.9063 4.1036,3.3503 5.8496,2.0973 C6.9066,1.3373 8.3706,1.3383 9.4276,2.0973 C11.1736,3.3503 11.1736,5.9063 9.4276,7.1603 C8.3706,7.9193 6.9066,7.9193 5.8486,7.1603 M10.2906,7.2803 C11.7966,5.7743 11.7536,3.3053 10.1616,1.8533 C8.7756,0.5893 6.6026,0.5603 5.1866,1.7903 C3.6356,3.1363 3.4756,5.4193 4.7026,6.9603 L0.4886,11.1753 C0.3746,11.2873 0.3746,11.4703 0.4886,11.5833 L0.6836,11.7793 C0.7966,11.8913 0.9796,11.8913 1.0916,11.7793 L5.3066,7.5643 C6.7796,8.7363 8.9276,8.6433 10.2906,7.2803" id="Fill-378" fill="#1A1919"></path>
    </g>
</svg>