<?xml version="1.0" encoding="UTF-8"?>
<svg width="238px" height="58px" viewBox="0 0 238 58" version="1.1" xmlns="http://www.w3.org/2000/svg" xmlns:xlink="http://www.w3.org/1999/xlink">
    <!-- Generator: Sketch 52.4 (67378) - http://www.bohemiancoding.com/sketch -->
    <title>Artboard</title>
    <desc>Created with Sketch.</desc>
    <g id="Artboard" stroke="none" stroke-width="1" fill="none" fill-rule="evenodd">
        <g id="Group-732" transform="translate(2.000000, 2.000000)">
            <path d="M54.2872,26.9944 C54.2872,41.8264 42.2652,53.8484 27.4332,53.8484 C12.6032,53.8484 0.5792,41.8264 0.5792,26.9944 C0.5792,12.1624 12.6032,0.1404 27.4332,0.1404 C42.2652,0.1404 54.2872,12.1624 54.2872,26.9944 Z" id="Stroke-678" stroke="#E9878C" stroke-width="1.5"></path>
            <path d="M16.9864,29.0228 C16.9864,29.0388 16.9704,29.0388 16.9704,29.0388 L16.9704,29.0988 L16.9704,29.1308 L16.9704,29.1768 C16.9544,29.1908 16.9544,29.2068 16.9544,29.2228 C16.9544,29.2368 16.9544,29.2528 16.9404,29.2688 L16.9404,29.3148 C16.9244,29.3288 16.9244,29.3448 16.9244,29.3448 L16.8944,29.3908 C16.8944,29.4048 16.8944,29.4208 16.8784,29.4368 C16.8784,29.4508 16.8624,29.4668 16.8624,29.4828 L16.8324,29.5288 C16.8324,29.5288 16.8184,29.5448 16.8184,29.5588 C16.8024,29.5748 16.7864,29.5748 16.7864,29.5908 C16.7724,29.6048 16.7724,29.6208 16.7564,29.6208 C16.7564,29.6368 16.7404,29.6508 16.7264,29.6668 C16.7104,29.6668 16.7104,29.6828 16.6944,29.6968 C16.6804,29.6968 16.6804,29.7128 16.6644,29.7288 C16.6484,29.7288 16.6324,29.7428 16.6324,29.7588 L16.6184,29.7588 C16.6184,29.7728 16.6024,29.7728 16.6024,29.7728 C16.5724,29.8048 16.5264,29.8188 16.4804,29.8508 C16.4344,29.8648 16.4024,29.8968 16.3584,29.9128 L16.3424,29.9128 C16.2964,29.9268 16.2504,29.9428 16.2044,29.9428 L16.1724,29.9428 C16.1424,29.9588 16.0964,29.9588 16.0504,29.9588 L15.9444,29.9588 L15.9284,29.9428 L15.8524,29.9428 C15.8364,29.9268 15.8364,29.9268 15.8204,29.9268 C15.7904,29.9268 15.7744,29.9128 15.7444,29.9128 C15.7444,29.9128 15.7284,29.8968 15.7124,29.8968 C15.6984,29.8968 15.6824,29.8808 15.6664,29.8648 C15.6524,29.8648 15.6364,29.8648 15.6204,29.8508 C15.6064,29.8508 15.5904,29.8348 15.5744,29.8188 C15.5604,29.8188 15.5444,29.8188 15.5444,29.8048 C15.5144,29.7888 15.4984,29.7888 15.4844,29.7728 C15.4844,29.7588 15.4684,29.7588 15.4524,29.7428 C15.4384,29.7288 15.4064,29.7128 15.3924,29.6828 C15.3764,29.6828 15.3764,29.6668 15.3764,29.6668 C15.3444,29.6508 15.3304,29.6208 15.3144,29.6048 L15.3144,29.5908 L9.4564,21.9848 L9.4564,29.0228 C9.4564,29.5448 9.0284,29.9588 8.5224,29.9588 C8.0004,29.9588 7.5864,29.5448 7.5864,29.0228 L7.5864,19.2548 L7.5864,19.2388 L7.5864,19.1788 C7.6024,19.1788 7.6024,19.1628 7.6024,19.1488 L7.6024,19.1028 C7.6024,19.0868 7.6024,19.0708 7.6164,19.0568 L7.6164,19.0108 C7.6324,18.9948 7.6324,18.9788 7.6324,18.9648 C7.6324,18.9488 7.6484,18.9328 7.6484,18.9328 C7.6484,18.9168 7.6624,18.9028 7.6624,18.8868 L7.6944,18.8408 C7.6944,18.8248 7.6944,18.8108 7.7084,18.7948 C7.7084,18.7788 7.7244,18.7648 7.7384,18.7488 C7.7384,18.7488 7.7384,18.7328 7.7544,18.7188 L7.7844,18.6888 C7.7844,18.6728 7.8004,18.6568 7.8004,18.6568 L7.8464,18.6108 C7.8464,18.6108 7.8624,18.5968 7.8784,18.5808 L7.9084,18.5508 C7.9084,18.5508 7.9244,18.5348 7.9384,18.5188 L7.9544,18.5188 C7.9544,18.5028 7.9704,18.5028 7.9704,18.5028 C7.9864,18.4888 8.0004,18.4728 8.0164,18.4728 C8.0304,18.4568 8.0464,18.4568 8.0464,18.4428 C8.0624,18.4428 8.0764,18.4268 8.0924,18.4268 C8.1084,18.4108 8.1224,18.4108 8.1384,18.4108 L8.1844,18.3808 C8.2004,18.3808 8.2004,18.3808 8.2144,18.3648 C8.2304,18.3648 8.2464,18.3648 8.2604,18.3508 L8.3064,18.3508 C8.3224,18.3348 8.3384,18.3348 8.3544,18.3348 L8.4004,18.3348 C8.4144,18.3188 8.4304,18.3188 8.4444,18.3188 L8.4904,18.3188 L8.5224,18.3188 L8.5364,18.3188 L8.5824,18.3188 L8.6284,18.3188 C8.6444,18.3348 8.6584,18.3348 8.6744,18.3348 L8.7204,18.3348 C8.7364,18.3508 8.7524,18.3508 8.7524,18.3508 L8.8144,18.3648 C8.8144,18.3648 8.8284,18.3808 8.8444,18.3808 C8.8604,18.3808 8.8744,18.3968 8.8904,18.3968 C8.9044,18.3968 8.9204,18.4108 8.9364,18.4108 L8.9664,18.4428 C8.9824,18.4428 8.9964,18.4568 9.0124,18.4568 C9.0284,18.4728 9.0424,18.4728 9.0424,18.4888 C9.0584,18.4888 9.0744,18.5028 9.0884,18.5188 C9.1044,18.5188 9.1044,18.5348 9.1204,18.5348 L9.1504,18.5648 C9.1664,18.5808 9.1804,18.5968 9.1804,18.5968 L9.2124,18.6268 C9.2284,18.6428 9.2424,18.6568 9.2424,18.6728 C9.2584,18.6728 9.2584,18.6728 9.2584,18.6888 L15.1144,26.2928 L15.1144,19.2548 C15.1144,18.7328 15.5284,18.3188 16.0504,18.3188 C16.5564,18.3188 16.9864,18.7328 16.9864,19.2548 L16.9864,29.0228 Z" id="Fill-680" fill="#E9878C"></path>
            <path d="M22.7042,29.973 C20.6022,29.973 18.3642,28.547 18.3642,25.925 L18.3642,19.271 C18.3642,18.749 18.7782,18.335 19.3002,18.335 C19.8222,18.335 20.2502,18.749 20.2502,19.271 L20.2502,25.925 C20.2502,27.337 21.4922,28.071 22.7042,28.071 C23.9302,28.071 25.1722,27.337 25.1722,25.925 L25.1722,19.271 C25.1722,18.749 25.6022,18.335 26.1222,18.335 C26.6442,18.335 27.0582,18.749 27.0582,19.271 L27.0582,25.925 C27.0582,28.547 24.8202,29.973 22.7042,29.973" id="Fill-682" fill="#E9878C"></path>
            <path d="M36.502,26.845 C36.396,28.639 34.77,29.681 33.312,29.897 C33.068,29.927 32.806,29.943 32.562,29.943 C31.058,29.943 29.572,29.313 28.652,28.225 C28.33,27.843 28.376,27.275 28.758,26.937 C29.142,26.615 29.71,26.661 30.032,27.045 C30.706,27.827 31.918,28.257 33.052,28.087 C33.804,27.979 34.632,27.519 34.678,26.737 C34.724,26.049 34.188,25.403 33.436,25.235 C33.128,25.159 32.776,25.143 32.424,25.129 C31.626,25.081 30.738,25.035 29.91,24.469 C28.79,23.701 28.238,22.305 28.576,21.079 C28.944,19.745 30.17,18.719 31.626,18.503 C33.038,18.303 34.54,18.703 35.628,19.547 C36.012,19.853 36.088,20.435 35.782,20.835 C35.474,21.219 34.892,21.295 34.494,20.987 C33.804,20.435 32.806,20.175 31.872,20.313 C31.152,20.421 30.506,20.927 30.338,21.571 C30.184,22.107 30.522,22.675 30.952,22.967 C31.35,23.241 31.886,23.273 32.516,23.303 C32.946,23.333 33.374,23.349 33.834,23.457 C35.444,23.809 36.594,25.281 36.502,26.845" id="Fill-684" fill="#E9878C"></path>
            <path d="M47.2802,18.8714 L47.2802,28.6394 C47.2802,29.1614 46.8522,29.5754 46.3442,29.5754 C45.8242,29.5754 45.4102,29.1614 45.4102,28.6394 L45.4102,24.7594 L39.7522,24.7594 L39.7522,28.6394 C39.7522,29.1614 39.3222,29.5754 38.8162,29.5754 C38.2942,29.5754 37.8802,29.1614 37.8802,28.6394 L37.8802,18.8714 C37.8802,18.3494 38.2942,17.9354 38.8162,17.9354 C39.3222,17.9354 39.7522,18.3494 39.7522,18.8714 L39.7522,22.9054 L45.4102,22.9054 L45.4102,18.8714 C45.4102,18.3494 45.8242,17.9354 46.3442,17.9354 C46.8522,17.9354 47.2802,18.3494 47.2802,18.8714" id="Fill-686" fill="#E9878C"></path>
            <path d="M10.4052,36.0452 C9.6052,36.0452 8.9512,35.3892 8.9512,34.5872 C8.9512,33.7872 9.6052,33.1352 10.4052,33.1352 C10.7652,33.1352 11.1112,33.2652 11.3792,33.5072 C11.4752,33.5912 11.4832,33.7372 11.3952,33.8332 C11.3112,33.9252 11.1632,33.9332 11.0712,33.8472 C10.8892,33.6832 10.6512,33.5952 10.4052,33.5952 C9.8572,33.5952 9.4132,34.0412 9.4132,34.5872 C9.4132,35.1352 9.8572,35.5812 10.4052,35.5812 C10.6572,35.5812 10.9012,35.4892 11.0832,35.3172 C11.1752,35.2292 11.3212,35.2352 11.4092,35.3292 C11.4932,35.4212 11.4892,35.5652 11.3992,35.6532 C11.1252,35.9032 10.7732,36.0452 10.4052,36.0452" id="Fill-688" fill="#E9878C"></path>
            <path d="M15.17,33.595 C14.622,33.595 14.176,34.041 14.176,34.585 C14.176,35.133 14.622,35.577 15.17,35.577 C15.714,35.577 16.16,35.133 16.16,34.585 C16.16,34.041 15.714,33.595 15.17,33.595 M15.17,36.041 C14.364,36.041 13.712,35.389 13.712,34.585 C13.712,33.783 14.364,33.131 15.17,33.131 C15.97,33.131 16.624,33.783 16.624,34.589 C16.624,35.389 15.97,36.041 15.17,36.041" id="Fill-690" fill="#E9878C"></path>
            <path d="M20.8994,35.2708 C20.8734,35.7188 20.4674,35.9788 20.1034,36.0328 C20.0414,36.0408 19.9754,36.0448 19.9154,36.0448 C19.5394,36.0448 19.1674,35.8888 18.9374,35.6148 C18.8574,35.5208 18.8674,35.3788 18.9634,35.2928 C19.0594,35.2128 19.2014,35.2248 19.2814,35.3208 C19.4514,35.5168 19.7534,35.6228 20.0374,35.5808 C20.2254,35.5548 20.4334,35.4388 20.4434,35.2428 C20.4554,35.0708 20.3214,34.9108 20.1334,34.8688 C20.0574,34.8488 19.9694,34.8448 19.8794,34.8408 C19.6814,34.8288 19.4594,34.8188 19.2514,34.6768 C18.9714,34.4848 18.8334,34.1368 18.9174,33.8288 C19.0094,33.4948 19.3154,33.2388 19.6814,33.1848 C20.0334,33.1348 20.4094,33.2348 20.6814,33.4448 C20.7774,33.5228 20.7974,33.6688 20.7194,33.7688 C20.6434,33.8628 20.4974,33.8828 20.3974,33.8068 C20.2254,33.6688 19.9754,33.6028 19.7414,33.6368 C19.5634,33.6648 19.4014,33.7908 19.3594,33.9508 C19.3194,34.0868 19.4054,34.2288 19.5134,34.3008 C19.6114,34.3688 19.7454,34.3768 19.9034,34.3848 C20.0114,34.3928 20.1174,34.3968 20.2334,34.4228 C20.6354,34.5128 20.9234,34.8788 20.8994,35.2708" id="Fill-692" fill="#E9878C"></path>
            <path d="M25.664,33.3732 L25.664,35.8152 C25.664,35.9452 25.556,36.0492 25.43,36.0492 C25.3,36.0492 25.196,35.9452 25.196,35.8152 L25.196,34.0852 L24.598,34.9072 C24.556,34.9632 24.488,35.0012 24.412,35.0012 C24.338,35.0012 24.268,34.9632 24.222,34.9072 L23.624,34.0852 L23.624,35.8152 C23.624,35.9452 23.522,36.0492 23.39,36.0492 C23.264,36.0492 23.162,35.9452 23.162,35.8152 L23.162,33.3732 L23.162,33.3652 L23.162,33.3532 L23.162,33.3412 C23.162,33.3372 23.164,33.3332 23.164,33.3312 L23.164,33.3192 C23.168,33.3152 23.168,33.3112 23.168,33.3072 C23.168,33.3032 23.172,33.2992 23.172,33.2952 C23.172,33.2912 23.176,33.2912 23.176,33.2892 C23.176,33.2852 23.18,33.2812 23.18,33.2772 C23.184,33.2732 23.184,33.2692 23.184,33.2652 L23.192,33.2572 C23.192,33.2532 23.196,33.2492 23.196,33.2472 L23.204,33.2392 C23.204,33.2352 23.206,33.2312 23.21,33.2272 C23.21,33.2232 23.214,33.2232 23.214,33.2192 L23.226,33.2112 C23.226,33.2072 23.23,33.2052 23.234,33.2052 C23.234,33.2012 23.238,33.1972 23.242,33.1972 L23.248,33.1892 C23.252,33.1852 23.252,33.1852 23.256,33.1852 C23.256,33.1812 23.256,33.1812 23.26,33.1812 C23.26,33.1772 23.264,33.1772 23.268,33.1732 C23.272,33.1732 23.276,33.1692 23.28,33.1692 C23.284,33.1652 23.288,33.1652 23.288,33.1632 C23.29,33.1632 23.294,33.1632 23.298,33.1592 C23.302,33.1592 23.306,33.1552 23.31,33.1552 C23.314,33.1552 23.318,33.1512 23.322,33.1512 C23.326,33.1512 23.326,33.1512 23.33,33.1472 C23.334,33.1472 23.336,33.1472 23.344,33.1432 L23.352,33.1432 C23.356,33.1432 23.36,33.1432 23.368,33.1392 L23.376,33.1392 L23.39,33.1392 L23.398,33.1392 L23.414,33.1392 C23.414,33.1392 23.418,33.1392 23.422,33.1432 L23.434,33.1432 C23.436,33.1432 23.44,33.1432 23.444,33.1472 L23.456,33.1472 C23.46,33.1512 23.464,33.1512 23.468,33.1512 C23.472,33.1552 23.476,33.1552 23.48,33.1552 C23.484,33.1592 23.484,33.1592 23.488,33.1592 L23.498,33.1652 C23.502,33.1652 23.506,33.1652 23.506,33.1692 C23.51,33.1692 23.514,33.1732 23.518,33.1772 C23.522,33.1772 23.526,33.1812 23.526,33.1812 L23.538,33.1892 C23.54,33.1932 23.54,33.1932 23.544,33.1972 C23.548,33.1972 23.552,33.2012 23.556,33.2052 C23.556,33.2072 23.56,33.2072 23.56,33.2112 C23.564,33.2152 23.568,33.2152 23.568,33.2192 C23.572,33.2232 23.576,33.2272 23.576,33.2312 C23.58,33.2312 23.58,33.2312 23.582,33.2352 L24.412,34.3732 L25.242,33.2352 C25.242,33.2312 25.242,33.2312 25.246,33.2312 C25.246,33.2272 25.25,33.2232 25.254,33.2192 C25.254,33.2152 25.258,33.2152 25.262,33.2112 C25.262,33.2072 25.266,33.2072 25.27,33.2052 C25.274,33.2012 25.274,33.1972 25.278,33.1972 L25.284,33.1892 C25.29,33.1852 25.292,33.1852 25.296,33.1812 C25.3,33.1812 25.3,33.1772 25.304,33.1772 C25.308,33.1732 25.312,33.1692 25.316,33.1692 C25.32,33.1652 25.32,33.1652 25.324,33.1652 L25.334,33.1592 C25.338,33.1592 25.342,33.1592 25.346,33.1552 C25.35,33.1552 25.35,33.1552 25.354,33.1512 C25.358,33.1512 25.362,33.1512 25.366,33.1472 L25.376,33.1472 C25.38,33.1432 25.384,33.1432 25.388,33.1432 L25.4,33.1432 C25.404,33.1392 25.408,33.1392 25.412,33.1392 L25.422,33.1392 L25.43,33.1392 L25.434,33.1392 L25.45,33.1392 L25.456,33.1392 C25.46,33.1432 25.464,33.1432 25.468,33.1432 L25.48,33.1432 C25.484,33.1472 25.488,33.1472 25.492,33.1472 C25.496,33.1512 25.498,33.1512 25.498,33.1512 C25.506,33.1512 25.51,33.1552 25.514,33.1552 C25.514,33.1552 25.518,33.1592 25.522,33.1592 C25.526,33.1632 25.53,33.1632 25.534,33.1632 L25.544,33.1692 C25.544,33.1692 25.548,33.1732 25.552,33.1732 L25.564,33.1812 L25.568,33.1852 L25.572,33.1892 C25.576,33.1892 25.58,33.1932 25.58,33.1972 C25.584,33.1972 25.588,33.2012 25.592,33.2052 L25.598,33.2112 C25.598,33.2152 25.602,33.2152 25.606,33.2192 C25.606,33.2232 25.61,33.2232 25.61,33.2272 C25.614,33.2312 25.618,33.2352 25.618,33.2392 L25.626,33.2472 C25.626,33.2492 25.63,33.2532 25.634,33.2572 C25.634,33.2612 25.634,33.2612 25.638,33.2652 C25.638,33.2692 25.642,33.2732 25.642,33.2772 C25.644,33.2812 25.644,33.2852 25.644,33.2892 C25.65,33.2912 25.65,33.2912 25.65,33.2952 C25.652,33.2992 25.652,33.3032 25.652,33.3072 C25.652,33.3112 25.656,33.3152 25.656,33.3192 C25.656,33.3232 25.656,33.3272 25.66,33.3312 L25.66,33.3412 L25.66,33.3532 L25.66,33.3652 C25.66,33.3692 25.664,33.3692 25.664,33.3732" id="Fill-694" fill="#E9878C"></path>
            <path d="M28.3624,34.8294 L28.3624,35.5894 L29.4584,35.5894 C29.5844,35.5894 29.6884,35.6934 29.6884,35.8194 C29.6884,35.9454 29.5844,36.0454 29.4584,36.0454 L28.1324,36.0454 C28.0064,36.0454 27.9064,35.9454 27.9064,35.8194 L27.9064,33.3654 C27.9064,33.2394 28.0064,33.1354 28.1324,33.1354 L29.4584,33.1354 C29.5844,33.1354 29.6884,33.2394 29.6884,33.3654 C29.6884,33.4914 29.5844,33.5954 29.4584,33.5954 L28.3624,33.5954 L28.3624,34.3734 L29.4584,34.3734 C29.5844,34.3734 29.6884,34.4734 29.6884,34.6034 C29.6884,34.7294 29.5844,34.8294 29.4584,34.8294 L28.3624,34.8294 Z" id="Fill-696" fill="#E9878C"></path>
            <path d="M33.997,33.3732 C33.997,33.5032 33.893,33.6072 33.767,33.6072 L33.107,33.6072 L33.107,35.8192 C33.107,35.9492 33.003,36.0532 32.877,36.0532 C32.747,36.0532 32.643,35.9492 32.643,35.8192 L32.643,33.6072 L31.989,33.6072 C31.861,33.6072 31.757,33.5032 31.757,33.3732 C31.757,33.2472 31.861,33.1432 31.989,33.1432 L33.767,33.1432 C33.893,33.1432 33.997,33.2472 33.997,33.3732" id="Fill-698" fill="#E9878C"></path>
            <path d="M36.5264,36.0412 C36.4004,36.0412 36.2964,35.9372 36.2964,35.8072 L36.2964,33.3652 C36.2964,33.2352 36.4004,33.1312 36.5264,33.1312 C36.6564,33.1312 36.7604,33.2352 36.7604,33.3652 L36.7604,35.8072 C36.7604,35.9372 36.6564,36.0412 36.5264,36.0412" id="Fill-700" fill="#E9878C"></path>
            <path d="M40.5888,36.0452 C39.7888,36.0452 39.1348,35.3892 39.1348,34.5872 C39.1348,33.7872 39.7888,33.1352 40.5888,33.1352 C40.9488,33.1352 41.2948,33.2652 41.5628,33.5072 C41.6588,33.5912 41.6668,33.7372 41.5788,33.8332 C41.4928,33.9252 41.3468,33.9332 41.2548,33.8472 C41.0728,33.6832 40.8348,33.5952 40.5888,33.5952 C40.0408,33.5952 39.5948,34.0412 39.5948,34.5872 C39.5948,35.1352 40.0408,35.5812 40.5888,35.5812 C40.8408,35.5812 41.0848,35.4892 41.2668,35.3172 C41.3588,35.2292 41.5048,35.2352 41.5928,35.3292 C41.6768,35.4212 41.6728,35.5652 41.5828,35.6532 C41.3088,35.9032 40.9568,36.0452 40.5888,36.0452" id="Fill-702" fill="#E9878C"></path>
            <path d="M45.913,35.2708 C45.885,35.7188 45.479,35.9788 45.115,36.0328 C45.053,36.0408 44.989,36.0448 44.927,36.0448 C44.551,36.0448 44.181,35.8888 43.951,35.6148 C43.871,35.5208 43.881,35.3788 43.977,35.2928 C44.073,35.2128 44.215,35.2248 44.295,35.3208 C44.463,35.5168 44.767,35.6228 45.051,35.5808 C45.239,35.5548 45.445,35.4388 45.457,35.2428 C45.469,35.0708 45.333,34.9108 45.147,34.8688 C45.069,34.8488 44.981,34.8448 44.893,34.8408 C44.693,34.8288 44.471,34.8188 44.265,34.6768 C43.985,34.4848 43.847,34.1368 43.931,33.8288 C44.023,33.4948 44.329,33.2388 44.693,33.1848 C45.047,33.1348 45.421,33.2348 45.695,33.4448 C45.789,33.5228 45.809,33.6688 45.733,33.7688 C45.657,33.8628 45.511,33.8828 45.411,33.8068 C45.239,33.6688 44.989,33.6028 44.755,33.6368 C44.575,33.6648 44.413,33.7908 44.371,33.9508 C44.333,34.0868 44.417,34.2288 44.525,34.3008 C44.625,34.3688 44.759,34.3768 44.915,34.3848 C45.023,34.3928 45.131,34.3968 45.247,34.4228 C45.649,34.5128 45.935,34.8788 45.913,35.2708" id="Fill-704" fill="#E9878C"></path>
            <path d="M74.1846,33.6232 C74.1846,33.6432 74.1646,33.6432 74.1646,33.6432 L74.1646,33.7232 L74.1646,33.7632 L74.1646,33.8252 C74.1446,33.8452 74.1446,33.8652 74.1446,33.8832 C74.1446,33.9052 74.1446,33.9252 74.1246,33.9452 L74.1246,34.0052 C74.1026,34.0252 74.1026,34.0452 74.1026,34.0452 L74.0626,34.1052 C74.0626,34.1252 74.0626,34.1452 74.0446,34.1652 C74.0446,34.1872 74.0226,34.2072 74.0226,34.2272 L73.9826,34.2872 C73.9826,34.2872 73.9626,34.3072 73.9626,34.3272 C73.9426,34.3472 73.9226,34.3472 73.9226,34.3672 C73.9026,34.3872 73.9026,34.4072 73.8826,34.4072 C73.8826,34.4272 73.8626,34.4492 73.8426,34.4672 C73.8226,34.4672 73.8226,34.4892 73.8026,34.5072 C73.7826,34.5072 73.7826,34.5292 73.7626,34.5472 C73.7406,34.5472 73.7226,34.5692 73.7226,34.5892 L73.7006,34.5892 C73.7006,34.6092 73.6826,34.6092 73.6826,34.6092 C73.6426,34.6492 73.5806,34.6692 73.5206,34.7092 C73.4606,34.7292 73.4206,34.7692 73.3586,34.7892 L73.3386,34.7892 C73.2786,34.8092 73.2186,34.8312 73.1586,34.8312 L73.1186,34.8312 C73.0786,34.8492 73.0186,34.8492 72.9566,34.8492 L72.8166,34.8492 L72.7966,34.8312 L72.6946,34.8312 C72.6766,34.8092 72.6766,34.8092 72.6546,34.8092 C72.6146,34.8092 72.5946,34.7892 72.5546,34.7892 C72.5546,34.7892 72.5346,34.7692 72.5146,34.7692 C72.4946,34.7692 72.4746,34.7492 72.4546,34.7292 C72.4346,34.7292 72.4146,34.7292 72.3926,34.7092 C72.3746,34.7092 72.3526,34.6892 72.3346,34.6692 C72.3126,34.6692 72.2926,34.6692 72.2926,34.6492 C72.2526,34.6292 72.2326,34.6292 72.2126,34.6092 C72.2126,34.5892 72.1926,34.5892 72.1726,34.5692 C72.1526,34.5472 72.1126,34.5292 72.0926,34.4892 C72.0726,34.4892 72.0726,34.4672 72.0726,34.4672 C72.0326,34.4492 72.0126,34.4072 71.9906,34.3872 L71.9906,34.3672 L64.3066,24.3892 L64.3066,33.6232 C64.3066,34.3072 63.7426,34.8492 63.0786,34.8492 C62.3946,34.8492 61.8526,34.3072 61.8526,33.6232 L61.8526,20.8092 L61.8526,20.7892 L61.8526,20.7072 C61.8726,20.7072 61.8726,20.6872 61.8726,20.6672 L61.8726,20.6072 C61.8726,20.5872 61.8726,20.5672 61.8926,20.5472 L61.8926,20.4872 C61.9126,20.4672 61.9126,20.4472 61.9126,20.4252 C61.9126,20.4072 61.9326,20.3852 61.9326,20.3852 C61.9326,20.3652 61.9526,20.3452 61.9526,20.3252 L61.9926,20.2652 C61.9926,20.2452 61.9926,20.2252 62.0146,20.2052 C62.0146,20.1852 62.0346,20.1652 62.0546,20.1452 C62.0546,20.1452 62.0546,20.1232 62.0746,20.1052 L62.1146,20.0652 C62.1146,20.0432 62.1346,20.0232 62.1346,20.0232 L62.1946,19.9632 C62.1946,19.9632 62.2146,19.9432 62.2346,19.9232 L62.2746,19.8832 C62.2746,19.8832 62.2946,19.8632 62.3146,19.8432 L62.3346,19.8432 C62.3346,19.8232 62.3546,19.8232 62.3546,19.8232 C62.3766,19.8032 62.3946,19.7832 62.4166,19.7832 C62.4346,19.7612 62.4566,19.7612 62.4566,19.7432 C62.4766,19.7432 62.4966,19.7212 62.5166,19.7212 C62.5366,19.7032 62.5566,19.7032 62.5766,19.7032 L62.6366,19.6612 C62.6566,19.6612 62.6566,19.6612 62.6786,19.6412 C62.6966,19.6412 62.7186,19.6412 62.7366,19.6212 L62.7986,19.6212 C62.8186,19.6012 62.8386,19.6012 62.8586,19.6012 L62.9186,19.6012 C62.9386,19.5812 62.9586,19.5812 62.9786,19.5812 L63.0386,19.5812 L63.0786,19.5812 L63.1006,19.5812 L63.1606,19.5812 L63.2206,19.5812 C63.2406,19.6012 63.2606,19.6012 63.2806,19.6012 L63.3406,19.6012 C63.3606,19.6212 63.3826,19.6212 63.3826,19.6212 L63.4626,19.6412 C63.4626,19.6412 63.4826,19.6612 63.5026,19.6612 C63.5226,19.6612 63.5426,19.6812 63.5626,19.6812 C63.5826,19.6812 63.6026,19.7032 63.6226,19.7032 L63.6626,19.7432 C63.6826,19.7432 63.7026,19.7612 63.7246,19.7612 C63.7426,19.7832 63.7646,19.7832 63.7646,19.8032 C63.7846,19.8032 63.8046,19.8232 63.8246,19.8432 C63.8446,19.8432 63.8446,19.8632 63.8646,19.8632 L63.9046,19.9032 C63.9246,19.9232 63.9446,19.9432 63.9446,19.9432 L63.9846,19.9832 C64.0046,20.0032 64.0246,20.0232 64.0246,20.0432 C64.0446,20.0432 64.0446,20.0432 64.0446,20.0652 L71.7306,30.0412 L71.7306,20.8092 C71.7306,20.1232 72.2726,19.5812 72.9566,19.5812 C73.6206,19.5812 74.1846,20.1232 74.1846,20.8092 L74.1846,33.6232 Z" id="Fill-706" fill="#E9878C"></path>
            <path d="M81.6884,34.8704 C78.9324,34.8704 75.9944,32.9984 75.9944,29.5604 L75.9944,20.8284 C75.9944,20.1444 76.5384,19.6024 77.2224,19.6024 C77.9064,19.6024 78.4704,20.1444 78.4704,20.8284 L78.4704,29.5604 C78.4704,31.4104 80.1004,32.3764 81.6884,32.3764 C83.2984,32.3764 84.9284,31.4104 84.9284,29.5604 L84.9284,20.8284 C84.9284,20.1444 85.4904,19.6024 86.1744,19.6024 C86.8584,19.6024 87.4004,20.1444 87.4004,20.8284 L87.4004,29.5604 C87.4004,32.9984 84.4644,34.8704 81.6884,34.8704" id="Fill-708" fill="#E9878C"></path>
            <path d="M99.794,30.7668 C99.654,33.1208 97.522,34.4888 95.61,34.7688 C95.288,34.8088 94.946,34.8308 94.624,34.8308 C92.654,34.8308 90.702,34.0048 89.494,32.5768 C89.072,32.0748 89.132,31.3288 89.636,30.8868 C90.138,30.4648 90.882,30.5248 91.304,31.0268 C92.19,32.0548 93.78,32.6168 95.268,32.3948 C96.254,32.2548 97.34,31.6508 97.4,30.6268 C97.46,29.7208 96.756,28.8748 95.77,28.6548 C95.37,28.5548 94.906,28.5328 94.444,28.5148 C93.398,28.4528 92.23,28.3928 91.144,27.6488 C89.676,26.6428 88.952,24.8108 89.394,23.2028 C89.878,21.4528 91.486,20.1048 93.398,19.8228 C95.248,19.5608 97.22,20.0848 98.648,21.1908 C99.15,21.5928 99.252,22.3568 98.848,22.8808 C98.446,23.3828 97.682,23.4828 97.16,23.0808 C96.254,22.3568 94.946,22.0168 93.718,22.1968 C92.774,22.3368 91.928,23.0008 91.708,23.8468 C91.506,24.5508 91.948,25.2948 92.512,25.6768 C93.036,26.0388 93.74,26.0788 94.564,26.1188 C95.128,26.1588 95.69,26.1808 96.294,26.3208 C98.406,26.7828 99.916,28.7148 99.794,30.7668" id="Fill-710" fill="#E9878C"></path>
            <path d="M113.9374,20.306 L113.9374,33.12 C113.9374,33.804 113.3734,34.348 112.7094,34.348 C112.0254,34.348 111.4814,33.804 111.4814,33.12 L111.4814,28.03 L104.0594,28.03 L104.0594,33.12 C104.0594,33.804 103.4954,34.348 102.8314,34.348 C102.1474,34.348 101.6054,33.804 101.6054,33.12 L101.6054,20.306 C101.6054,19.622 102.1474,19.078 102.8314,19.078 C103.4954,19.078 104.0594,19.622 104.0594,20.306 L104.0594,25.596 L111.4814,25.596 L111.4814,20.306 C111.4814,19.622 112.0254,19.078 112.7094,19.078 C113.3734,19.078 113.9374,19.622 113.9374,20.306" id="Fill-712" fill="#E9878C"></path>
            <path d="M128.9052,34.8304 C124.6992,34.8304 121.2792,31.3904 121.2792,27.1864 C121.2792,22.9804 124.6992,19.5624 128.9052,19.5624 C130.7952,19.5624 132.6072,20.2464 134.0152,21.5124 C134.5172,21.9564 134.5572,22.7204 134.0952,23.2224 C133.6532,23.7064 132.8872,23.7464 132.4052,23.3024 C131.4392,22.4384 130.1932,21.9744 128.9052,21.9744 C126.0292,21.9744 123.6952,24.3084 123.6952,27.1864 C123.6952,30.0624 126.0292,32.3964 128.9052,32.3964 C130.2332,32.3964 131.4992,31.9144 132.4652,31.0084 C132.9472,30.5444 133.7132,30.5844 134.1752,31.0684 C134.6172,31.5504 134.5972,32.3164 134.1152,32.7784 C132.6872,34.0864 130.8352,34.8304 128.9052,34.8304" id="Fill-714" fill="#E9878C"></path>
            <path d="M143.8526,21.9748 C140.9766,21.9748 138.6426,24.3088 138.6426,27.1648 C138.6426,30.0428 140.9766,32.3768 143.8526,32.3768 C146.7086,32.3768 149.0426,30.0428 149.0426,27.1648 C149.0426,24.3088 146.7086,21.9748 143.8526,21.9748 M143.8526,34.8088 C139.6286,34.8088 136.2086,31.3908 136.2086,27.1648 C136.2086,22.9608 139.6286,19.5408 143.8526,19.5408 C148.0566,19.5408 151.4766,22.9608 151.4766,27.1848 C151.4766,31.3908 148.0566,34.8088 143.8526,34.8088" id="Fill-716" fill="#E9878C"></path>
            <path d="M163.8692,30.7668 C163.7292,33.1208 161.5952,34.4888 159.6852,34.7688 C159.3632,34.8088 159.0212,34.8308 158.6992,34.8308 C156.7272,34.8308 154.7772,34.0048 153.5692,32.5768 C153.1472,32.0748 153.2072,31.3288 153.7092,30.8868 C154.2132,30.4648 154.9572,30.5248 155.3792,31.0268 C156.2652,32.0548 157.8552,32.6168 159.3432,32.3948 C160.3292,32.2548 161.4152,31.6508 161.4752,30.6268 C161.5352,29.7208 160.8312,28.8748 159.8452,28.6548 C159.4452,28.5548 158.9812,28.5328 158.5192,28.5148 C157.4732,28.4528 156.3052,28.3928 155.2192,27.6488 C153.7512,26.6428 153.0272,24.8108 153.4692,23.2028 C153.9532,21.4528 155.5612,20.1048 157.4732,19.8228 C159.3232,19.5608 161.2952,20.0848 162.7232,21.1908 C163.2252,21.5928 163.3272,22.3568 162.9232,22.8808 C162.5212,23.3828 161.7572,23.4828 161.2352,23.0808 C160.3292,22.3568 159.0212,22.0168 157.7932,22.1968 C156.8492,22.3368 156.0032,23.0008 155.7832,23.8468 C155.5812,24.5508 156.0232,25.2948 156.5872,25.6768 C157.1112,26.0388 157.8152,26.0788 158.6392,26.1188 C159.2032,26.1588 159.7652,26.1808 160.3692,26.3208 C162.4812,26.7828 163.9912,28.7148 163.8692,30.7668" id="Fill-718" fill="#E9878C"></path>
            <path d="M178.8164,20.8088 L178.8164,33.6228 C178.8164,34.3068 178.2544,34.8508 177.5904,34.8508 C176.9064,34.8508 176.3624,34.3068 176.3624,33.6228 L176.3624,24.5508 L173.2244,28.8548 C173.0024,29.1568 172.6404,29.3588 172.2384,29.3588 C171.8564,29.3588 171.4944,29.1568 171.2524,28.8548 L168.1144,24.5508 L168.1144,33.6228 C168.1144,34.3068 167.5704,34.8508 166.8884,34.8508 C166.2244,34.8508 165.6804,34.3068 165.6804,33.6228 L165.6804,20.8088 L165.6804,20.7668 L165.6804,20.7088 L165.6804,20.6468 C165.6804,20.6268 165.7004,20.6068 165.7004,20.5868 L165.7004,20.5268 C165.7204,20.5068 165.7204,20.4868 165.7204,20.4668 C165.7204,20.4468 165.7404,20.4268 165.7404,20.4068 C165.7404,20.3868 165.7604,20.3868 165.7604,20.3648 C165.7604,20.3468 165.7804,20.3248 165.7804,20.3068 C165.8004,20.2848 165.8004,20.2648 165.8004,20.2448 L165.8424,20.2048 C165.8424,20.1848 165.8604,20.1648 165.8604,20.1448 L165.9024,20.1048 C165.9024,20.0848 165.9224,20.0648 165.9424,20.0448 C165.9424,20.0228 165.9624,20.0228 165.9624,20.0048 L166.0224,19.9648 C166.0224,19.9428 166.0424,19.9228 166.0624,19.9228 C166.0624,19.9028 166.0824,19.8828 166.1024,19.8828 L166.1444,19.8428 C166.1624,19.8228 166.1624,19.8228 166.1844,19.8228 C166.1844,19.8028 166.1844,19.8028 166.2024,19.8028 C166.2024,19.7828 166.2244,19.7828 166.2444,19.7628 C166.2644,19.7628 166.2844,19.7428 166.3044,19.7428 C166.3244,19.7228 166.3444,19.7228 166.3444,19.7028 C166.3644,19.7028 166.3844,19.7028 166.4044,19.6828 C166.4244,19.6828 166.4444,19.6608 166.4644,19.6608 C166.4844,19.6608 166.5064,19.6428 166.5244,19.6428 C166.5464,19.6428 166.5464,19.6428 166.5664,19.6208 C166.5864,19.6208 166.6064,19.6208 166.6464,19.6008 L166.6864,19.6008 C166.7064,19.6008 166.7264,19.6008 166.7664,19.5808 L166.8064,19.5808 L166.8884,19.5808 L166.9284,19.5808 L167.0084,19.5808 C167.0084,19.5808 167.0284,19.5808 167.0484,19.6008 L167.1084,19.6008 C167.1284,19.6008 167.1504,19.6008 167.1684,19.6208 L167.2304,19.6208 C167.2504,19.6428 167.2704,19.6428 167.2904,19.6428 C167.3104,19.6608 167.3304,19.6608 167.3504,19.6608 C167.3704,19.6828 167.3704,19.6828 167.3904,19.6828 L167.4504,19.7228 C167.4704,19.7228 167.4904,19.7228 167.4904,19.7428 C167.5104,19.7428 167.5304,19.7628 167.5524,19.7828 C167.5704,19.7828 167.5924,19.8028 167.5924,19.8028 L167.6524,19.8428 L167.6924,19.8828 C167.7124,19.8828 167.7324,19.9028 167.7524,19.9228 C167.7524,19.9428 167.7724,19.9428 167.7724,19.9648 C167.7924,19.9828 167.8124,19.9828 167.8124,20.0048 C167.8324,20.0228 167.8544,20.0448 167.8544,20.0648 C167.8724,20.0648 167.8724,20.0648 167.8944,20.0848 L172.2384,26.0588 L176.6044,20.0848 C176.6044,20.0648 176.6044,20.0648 176.6244,20.0648 C176.6244,20.0448 176.6444,20.0228 176.6644,20.0048 C176.6644,19.9828 176.6844,19.9828 176.7044,19.9648 C176.7044,19.9428 176.7244,19.9428 176.7444,19.9228 C176.7644,19.9028 176.7644,19.8828 176.7844,19.8828 L176.8244,19.8428 C176.8464,19.8228 176.8644,19.8228 176.8864,19.8028 C176.9064,19.8028 176.9064,19.7828 176.9264,19.7828 C176.9464,19.7628 176.9664,19.7428 176.9864,19.7428 C177.0064,19.7228 177.0064,19.7228 177.0264,19.7228 L177.0864,19.6828 C177.1084,19.6828 177.1264,19.6828 177.1484,19.6608 C177.1664,19.6608 177.1664,19.6608 177.1884,19.6428 C177.2064,19.6428 177.2284,19.6428 177.2484,19.6208 L177.3084,19.6208 C177.3284,19.6008 177.3484,19.6008 177.3684,19.6008 L177.4284,19.6008 C177.4484,19.5808 177.4684,19.5808 177.4884,19.5808 L177.5504,19.5808 L177.5904,19.5808 L177.6104,19.5808 L177.6904,19.5808 L177.7304,19.5808 C177.7504,19.6008 177.7724,19.6008 177.7904,19.6008 L177.8524,19.6008 C177.8704,19.6208 177.8924,19.6208 177.9124,19.6208 C177.9324,19.6428 177.9524,19.6428 177.9524,19.6428 C177.9924,19.6428 178.0124,19.6608 178.0324,19.6608 C178.0324,19.6608 178.0524,19.6828 178.0724,19.6828 C178.0924,19.7028 178.1124,19.7028 178.1324,19.7028 L178.1924,19.7428 C178.1924,19.7428 178.2124,19.7628 178.2324,19.7628 L178.2944,19.8028 L178.3144,19.8228 L178.3344,19.8428 C178.3544,19.8428 178.3744,19.8628 178.3744,19.8828 C178.3944,19.8828 178.4144,19.9028 178.4344,19.9228 L178.4744,19.9648 C178.4744,19.9828 178.4944,19.9828 178.5164,20.0048 C178.5164,20.0228 178.5344,20.0228 178.5344,20.0448 C178.5564,20.0648 178.5744,20.0848 178.5744,20.1048 L178.6164,20.1448 C178.6164,20.1648 178.6364,20.1848 178.6564,20.2048 C178.6564,20.2248 178.6564,20.2248 178.6764,20.2448 C178.6764,20.2648 178.6964,20.2848 178.6964,20.3068 C178.7164,20.3248 178.7164,20.3468 178.7164,20.3648 C178.7364,20.3868 178.7364,20.3868 178.7364,20.4068 C178.7564,20.4268 178.7564,20.4468 178.7564,20.4668 C178.7564,20.4868 178.7764,20.5068 178.7764,20.5268 C178.7764,20.5468 178.7764,20.5668 178.7964,20.5868 L178.7964,20.6468 L178.7964,20.7088 L178.7964,20.7668 C178.7964,20.7888 178.8164,20.7888 178.8164,20.8088" id="Fill-720" fill="#E9878C"></path>
            <path d="M182.9208,28.4534 L182.9208,32.4354 L188.6748,32.4354 C189.3388,32.4354 189.8808,32.9794 189.8808,33.6434 C189.8808,34.3074 189.3388,34.8294 188.6748,34.8294 L181.7128,34.8294 C181.0508,34.8294 180.5268,34.3074 180.5268,33.6434 L180.5268,20.7674 C180.5268,20.1054 181.0508,19.5614 181.7128,19.5614 L188.6748,19.5614 C189.3388,19.5614 189.8808,20.1054 189.8808,20.7674 C189.8808,21.4314 189.3388,21.9754 188.6748,21.9754 L182.9208,21.9754 L182.9208,26.0594 L188.6748,26.0594 C189.3388,26.0594 189.8808,26.5814 189.8808,27.2654 C189.8808,27.9294 189.3388,28.4534 188.6748,28.4534 L182.9208,28.4534 Z" id="Fill-722" fill="#E9878C"></path>
            <path d="M202.4356,20.8088 C202.4356,21.4928 201.8936,22.0348 201.2276,22.0348 L197.7696,22.0348 L197.7696,33.6428 C197.7696,34.3268 197.2256,34.8708 196.5616,34.8708 C195.8776,34.8708 195.3336,34.3268 195.3336,33.6428 L195.3336,22.0348 L191.8936,22.0348 C191.2296,22.0348 190.6856,21.4928 190.6856,20.8088 C190.6856,20.1448 191.2296,19.6008 191.8936,19.6008 L201.2276,19.6008 C201.8936,19.6008 202.4356,20.1448 202.4356,20.8088" id="Fill-724" fill="#E9878C"></path>
            <path d="M205.6542,34.8098 C204.9902,34.8098 204.4462,34.2678 204.4462,33.5838 L204.4462,20.7678 C204.4462,20.0838 204.9902,19.5418 205.6542,19.5418 C206.3382,19.5418 206.8822,20.0838 206.8822,20.7678 L206.8822,33.5838 C206.8822,34.2678 206.3382,34.8098 205.6542,34.8098" id="Fill-726" fill="#E9878C"></path>
            <path d="M216.92,34.8304 C212.716,34.8304 209.296,31.3904 209.296,27.1864 C209.296,22.9804 212.716,19.5624 216.92,19.5624 C218.81,19.5624 220.622,20.2464 222.03,21.5124 C222.534,21.9564 222.572,22.7204 222.11,23.2224 C221.668,23.7064 220.904,23.7464 220.42,23.3024 C219.456,22.4384 218.208,21.9744 216.92,21.9744 C214.044,21.9744 211.71,24.3084 211.71,27.1864 C211.71,30.0624 214.044,32.3964 216.92,32.3964 C218.248,32.3964 219.514,31.9144 220.48,31.0084 C220.962,30.5444 221.728,30.5844 222.19,31.0684 C222.632,31.5504 222.614,32.3164 222.13,32.7784 C220.702,34.0864 218.85,34.8304 216.92,34.8304" id="Fill-728" fill="#E9878C"></path>
            <path d="M234.8046,30.7668 C234.6646,33.1208 232.5306,34.4888 230.6206,34.7688 C230.2986,34.8088 229.9566,34.8308 229.6346,34.8308 C227.6626,34.8308 225.7126,34.0048 224.5046,32.5768 C224.0826,32.0748 224.1426,31.3288 224.6446,30.8868 C225.1486,30.4648 225.8926,30.5248 226.3146,31.0268 C227.2006,32.0548 228.7886,32.6168 230.2786,32.3948 C231.2626,32.2548 232.3486,31.6508 232.4106,30.6268 C232.4706,29.7208 231.7666,28.8748 230.7806,28.6548 C230.3786,28.5548 229.9166,28.5328 229.4526,28.5148 C228.4066,28.4528 227.2406,28.3928 226.1546,27.6488 C224.6846,26.6428 223.9606,24.8108 224.4046,23.2028 C224.8866,21.4528 226.4966,20.1048 228.4066,19.8228 C230.2586,19.5608 232.2286,20.0848 233.6586,21.1908 C234.1606,21.5928 234.2626,22.3568 233.8586,22.8808 C233.4566,23.3828 232.6926,23.4828 232.1686,23.0808 C231.2626,22.3568 229.9566,22.0168 228.7286,22.1968 C227.7826,22.3368 226.9386,23.0008 226.7186,23.8468 C226.5166,24.5508 226.9586,25.2948 227.5206,25.6768 C228.0446,26.0388 228.7486,26.0788 229.5746,26.1188 C230.1366,26.1588 230.7006,26.1808 231.3046,26.3208 C233.4166,26.7828 234.9246,28.7148 234.8046,30.7668" id="Fill-730" fill="#E9878C"></path>
        </g>
    </g>
</svg>